<svg width="560" height="230" viewBox="0 0 560 230" fill="none" xmlns="http://www.w3.org/2000/svg">
<path d="M199.528 127.717V77.1654C199.528 34.548 164.98 0 122.362 0H0V40.6299H122.362C142.366 40.6299 158.583 56.8463 158.583 76.8504V127.717H199.528Z" fill="url(#paint0_linear_13_26)"/>
<path d="M0 40.7874V40.6299ZM0 40.6299V0H122.362C164.98 0 199.528 34.548 199.528 77.1654V127.717H158.583V76.8504C158.583 56.8463 142.366 40.6299 122.362 40.6299H0Z" fill="url(#paint1_linear_13_26)"/>
<path d="M105.512 200.63L41.5748 137.48V200.63H0V125.039C0 92.8589 26.0873 66.7716 58.2677 66.7716H121.89C128.848 66.7716 134.488 72.4122 134.488 79.37V108.031H70.8661L160.157 200.63H105.512Z" fill="url(#paint2_linear_13_26)"/>
<mask id="path-4-outside-1_13_26" maskUnits="userSpaceOnUse" x="256" y="79.8149" width="292" height="98" fill="black">
<rect fill="white" x="256" y="79.8149" width="292" height="98"/>
<path d="M286.125 174.815H257.398V81.724H287.398C296.428 81.724 304.155 83.5877 310.58 87.3149C317.004 91.0119 321.928 96.3301 325.352 103.269C328.777 110.179 330.489 118.451 330.489 128.088C330.489 137.785 328.761 146.133 325.307 153.133C321.852 160.103 316.822 165.466 310.216 169.224C303.61 172.951 295.58 174.815 286.125 174.815ZM268.67 164.815H285.398C293.095 164.815 299.473 163.33 304.534 160.36C309.595 157.391 313.367 153.163 315.852 147.679C318.337 142.194 319.58 135.663 319.58 128.088C319.58 120.573 318.352 114.103 315.898 108.679C313.443 103.224 309.777 99.0422 304.898 96.1331C300.019 93.1937 293.943 91.724 286.67 91.724H268.67V164.815ZM376.307 176.269C370.004 176.269 364.473 174.769 359.716 171.769C354.989 168.769 351.292 164.573 348.625 159.179C345.989 153.785 344.67 147.482 344.67 140.269C344.67 132.997 345.989 126.648 348.625 121.224C351.292 115.8 354.989 111.588 359.716 108.588C364.473 105.588 370.004 104.088 376.307 104.088C382.61 104.088 388.125 105.588 392.852 108.588C397.61 111.588 401.307 115.8 403.943 121.224C406.61 126.648 407.943 132.997 407.943 140.269C407.943 147.482 406.61 153.785 403.943 159.179C401.307 164.573 397.61 168.769 392.852 171.769C388.125 174.769 382.61 176.269 376.307 176.269ZM376.307 166.633C381.095 166.633 385.034 165.406 388.125 162.951C391.216 160.497 393.504 157.269 394.989 153.269C396.473 149.269 397.216 144.936 397.216 140.269C397.216 135.603 396.473 131.254 394.989 127.224C393.504 123.194 391.216 119.936 388.125 117.451C385.034 114.966 381.095 113.724 376.307 113.724C371.519 113.724 367.58 114.966 364.489 117.451C361.398 119.936 359.11 123.194 357.625 127.224C356.14 131.254 355.398 135.603 355.398 140.269C355.398 144.936 356.14 149.269 357.625 153.269C359.11 157.269 361.398 160.497 364.489 162.951C367.58 165.406 371.519 166.633 376.307 166.633ZM452.682 176.269C446.136 176.269 440.5 174.724 435.773 171.633C431.045 168.542 427.409 164.285 424.864 158.86C422.318 153.436 421.045 147.239 421.045 140.269C421.045 133.179 422.348 126.921 424.955 121.497C427.591 116.042 431.258 111.785 435.955 108.724C440.682 105.633 446.197 104.088 452.5 104.088C457.409 104.088 461.833 104.997 465.773 106.815C469.712 108.633 472.939 111.179 475.455 114.451C477.97 117.724 479.53 121.542 480.136 125.906H469.409C468.591 122.724 466.773 119.906 463.955 117.451C461.167 114.966 457.409 113.724 452.682 113.724C448.5 113.724 444.833 114.815 441.682 116.997C438.561 119.148 436.121 122.194 434.364 126.133C432.636 130.042 431.773 134.633 431.773 139.906C431.773 145.3 432.621 149.997 434.318 153.997C436.045 157.997 438.47 161.103 441.591 163.315C444.742 165.527 448.439 166.633 452.682 166.633C455.47 166.633 458 166.148 460.273 165.179C462.545 164.209 464.47 162.815 466.045 160.997C467.621 159.179 468.742 156.997 469.409 154.451H480.136C479.53 158.573 478.03 162.285 475.636 165.588C473.273 168.86 470.136 171.466 466.227 173.406C462.348 175.315 457.833 176.269 452.682 176.269ZM545.273 120.633L535.636 123.36C535.03 121.754 534.136 120.194 532.955 118.679C531.803 117.133 530.227 115.86 528.227 114.86C526.227 113.86 523.667 113.36 520.545 113.36C516.273 113.36 512.712 114.345 509.864 116.315C507.045 118.254 505.636 120.724 505.636 123.724C505.636 126.391 506.606 128.497 508.545 130.042C510.485 131.588 513.515 132.876 517.636 133.906L528 136.451C534.242 137.966 538.894 140.285 541.955 143.406C545.015 146.497 546.545 150.482 546.545 155.36C546.545 159.36 545.394 162.936 543.091 166.088C540.818 169.239 537.636 171.724 533.545 173.542C529.455 175.36 524.697 176.269 519.273 176.269C512.152 176.269 506.258 174.724 501.591 171.633C496.924 168.542 493.97 164.027 492.727 158.088L502.909 155.542C503.879 159.3 505.712 162.118 508.409 163.997C511.136 165.876 514.697 166.815 519.091 166.815C524.091 166.815 528.061 165.754 531 163.633C533.97 161.482 535.455 158.906 535.455 155.906C535.455 153.482 534.606 151.451 532.909 149.815C531.212 148.148 528.606 146.906 525.091 146.088L513.455 143.36C507.061 141.845 502.364 139.497 499.364 136.315C496.394 133.103 494.909 129.088 494.909 124.269C494.909 120.33 496.015 116.845 498.227 113.815C500.47 110.785 503.515 108.406 507.364 106.679C511.242 104.951 515.636 104.088 520.545 104.088C527.455 104.088 532.879 105.603 536.818 108.633C540.788 111.663 543.606 115.663 545.273 120.633Z"/>
</mask>
<path d="M286.125 174.815H257.398V81.724H287.398C296.428 81.724 304.155 83.5877 310.58 87.3149C317.004 91.0119 321.928 96.3301 325.352 103.269C328.777 110.179 330.489 118.451 330.489 128.088C330.489 137.785 328.761 146.133 325.307 153.133C321.852 160.103 316.822 165.466 310.216 169.224C303.61 172.951 295.58 174.815 286.125 174.815ZM268.67 164.815H285.398C293.095 164.815 299.473 163.33 304.534 160.36C309.595 157.391 313.367 153.163 315.852 147.679C318.337 142.194 319.58 135.663 319.58 128.088C319.58 120.573 318.352 114.103 315.898 108.679C313.443 103.224 309.777 99.0422 304.898 96.1331C300.019 93.1937 293.943 91.724 286.67 91.724H268.67V164.815ZM376.307 176.269C370.004 176.269 364.473 174.769 359.716 171.769C354.989 168.769 351.292 164.573 348.625 159.179C345.989 153.785 344.67 147.482 344.67 140.269C344.67 132.997 345.989 126.648 348.625 121.224C351.292 115.8 354.989 111.588 359.716 108.588C364.473 105.588 370.004 104.088 376.307 104.088C382.61 104.088 388.125 105.588 392.852 108.588C397.61 111.588 401.307 115.8 403.943 121.224C406.61 126.648 407.943 132.997 407.943 140.269C407.943 147.482 406.61 153.785 403.943 159.179C401.307 164.573 397.61 168.769 392.852 171.769C388.125 174.769 382.61 176.269 376.307 176.269ZM376.307 166.633C381.095 166.633 385.034 165.406 388.125 162.951C391.216 160.497 393.504 157.269 394.989 153.269C396.473 149.269 397.216 144.936 397.216 140.269C397.216 135.603 396.473 131.254 394.989 127.224C393.504 123.194 391.216 119.936 388.125 117.451C385.034 114.966 381.095 113.724 376.307 113.724C371.519 113.724 367.58 114.966 364.489 117.451C361.398 119.936 359.11 123.194 357.625 127.224C356.14 131.254 355.398 135.603 355.398 140.269C355.398 144.936 356.14 149.269 357.625 153.269C359.11 157.269 361.398 160.497 364.489 162.951C367.58 165.406 371.519 166.633 376.307 166.633ZM452.682 176.269C446.136 176.269 440.5 174.724 435.773 171.633C431.045 168.542 427.409 164.285 424.864 158.86C422.318 153.436 421.045 147.239 421.045 140.269C421.045 133.179 422.348 126.921 424.955 121.497C427.591 116.042 431.258 111.785 435.955 108.724C440.682 105.633 446.197 104.088 452.5 104.088C457.409 104.088 461.833 104.997 465.773 106.815C469.712 108.633 472.939 111.179 475.455 114.451C477.97 117.724 479.53 121.542 480.136 125.906H469.409C468.591 122.724 466.773 119.906 463.955 117.451C461.167 114.966 457.409 113.724 452.682 113.724C448.5 113.724 444.833 114.815 441.682 116.997C438.561 119.148 436.121 122.194 434.364 126.133C432.636 130.042 431.773 134.633 431.773 139.906C431.773 145.3 432.621 149.997 434.318 153.997C436.045 157.997 438.47 161.103 441.591 163.315C444.742 165.527 448.439 166.633 452.682 166.633C455.47 166.633 458 166.148 460.273 165.179C462.545 164.209 464.47 162.815 466.045 160.997C467.621 159.179 468.742 156.997 469.409 154.451H480.136C479.53 158.573 478.03 162.285 475.636 165.588C473.273 168.86 470.136 171.466 466.227 173.406C462.348 175.315 457.833 176.269 452.682 176.269ZM545.273 120.633L535.636 123.36C535.03 121.754 534.136 120.194 532.955 118.679C531.803 117.133 530.227 115.86 528.227 114.86C526.227 113.86 523.667 113.36 520.545 113.36C516.273 113.36 512.712 114.345 509.864 116.315C507.045 118.254 505.636 120.724 505.636 123.724C505.636 126.391 506.606 128.497 508.545 130.042C510.485 131.588 513.515 132.876 517.636 133.906L528 136.451C534.242 137.966 538.894 140.285 541.955 143.406C545.015 146.497 546.545 150.482 546.545 155.36C546.545 159.36 545.394 162.936 543.091 166.088C540.818 169.239 537.636 171.724 533.545 173.542C529.455 175.36 524.697 176.269 519.273 176.269C512.152 176.269 506.258 174.724 501.591 171.633C496.924 168.542 493.97 164.027 492.727 158.088L502.909 155.542C503.879 159.3 505.712 162.118 508.409 163.997C511.136 165.876 514.697 166.815 519.091 166.815C524.091 166.815 528.061 165.754 531 163.633C533.97 161.482 535.455 158.906 535.455 155.906C535.455 153.482 534.606 151.451 532.909 149.815C531.212 148.148 528.606 146.906 525.091 146.088L513.455 143.36C507.061 141.845 502.364 139.497 499.364 136.315C496.394 133.103 494.909 129.088 494.909 124.269C494.909 120.33 496.015 116.845 498.227 113.815C500.47 110.785 503.515 108.406 507.364 106.679C511.242 104.951 515.636 104.088 520.545 104.088C527.455 104.088 532.879 105.603 536.818 108.633C540.788 111.663 543.606 115.663 545.273 120.633Z" fill="white"/>
<path d="M257.398 174.815H256.398V175.815H257.398V174.815ZM257.398 81.724V80.724H256.398V81.724H257.398ZM310.58 87.3149L310.078 88.1799L310.081 88.1817L310.58 87.3149ZM325.352 103.269L324.456 103.712L324.456 103.714L325.352 103.269ZM325.307 153.133L326.203 153.577L326.204 153.576L325.307 153.133ZM310.216 169.224L310.707 170.095L310.71 170.093L310.216 169.224ZM268.67 164.815H267.67V165.815H268.67V164.815ZM304.534 160.36L304.028 159.498L304.534 160.36ZM315.898 108.679L314.986 109.089L314.987 109.091L315.898 108.679ZM304.898 96.1331L304.382 96.9897L304.386 96.992L304.898 96.1331ZM268.67 91.724V90.724H267.67V91.724H268.67ZM286.125 174.815V173.815H257.398V174.815V175.815H286.125V174.815ZM257.398 174.815H258.398V81.724H257.398H256.398V174.815H257.398ZM257.398 81.724V82.724H287.398V81.724V80.724H257.398V81.724ZM287.398 81.724V82.724C296.29 82.724 303.836 84.5583 310.078 88.1799L310.58 87.3149L311.081 86.45C304.475 82.617 296.566 80.724 287.398 80.724V81.724ZM310.58 87.3149L310.081 88.1817C316.325 91.7753 321.115 96.942 324.456 103.712L325.352 103.269L326.249 102.827C322.741 95.7181 317.682 90.2485 311.078 86.4482L310.58 87.3149ZM325.352 103.269L324.456 103.714C327.797 110.454 329.489 118.568 329.489 128.088H330.489H331.489C331.489 118.335 329.756 109.903 326.248 102.825L325.352 103.269ZM330.489 128.088H329.489C329.489 137.668 327.782 145.857 324.41 152.691L325.307 153.133L326.204 153.576C329.74 146.409 331.489 137.902 331.489 128.088H330.489ZM325.307 153.133L324.411 152.689C321.043 159.485 316.15 164.698 309.721 168.355L310.216 169.224L310.71 170.093C317.494 166.235 322.662 160.721 326.203 153.577L325.307 153.133ZM310.216 169.224L309.725 168.353C303.301 171.977 295.449 173.815 286.125 173.815V174.815V175.815C295.71 175.815 303.919 173.925 310.707 170.095L310.216 169.224ZM268.67 164.815V165.815H285.398V164.815V163.815H268.67V164.815ZM285.398 164.815V165.815C293.219 165.815 299.785 164.307 305.04 161.223L304.534 160.36L304.028 159.498C299.162 162.354 292.971 163.815 285.398 163.815V164.815ZM304.534 160.36L305.04 161.223C310.284 158.146 314.195 153.759 316.763 148.091L315.852 147.679L314.941 147.266C312.539 152.568 308.906 156.636 304.028 159.498L304.534 160.36ZM315.852 147.679L316.763 148.091C319.32 142.448 320.58 135.77 320.58 128.088H319.58H318.58C318.58 135.557 317.354 141.94 314.941 147.266L315.852 147.679ZM319.58 128.088H320.58C320.58 120.466 319.335 113.849 316.809 108.266L315.898 108.679L314.987 109.091C317.369 114.356 318.58 120.679 318.58 128.088H319.58ZM315.898 108.679L316.81 108.268C314.276 102.637 310.474 98.2941 305.41 95.2742L304.898 96.1331L304.386 96.992C309.079 99.7904 312.611 103.811 314.986 109.089L315.898 108.679ZM304.898 96.1331L305.414 95.2766C300.342 92.2207 294.075 90.724 286.67 90.724V91.724V92.724C293.811 92.724 299.696 94.1668 304.382 96.9897L304.898 96.1331ZM286.67 91.724V90.724H268.67V91.724V92.724H286.67V91.724ZM268.67 91.724H267.67V164.815H268.67H269.67V91.724H268.67ZM359.716 171.769L359.18 172.614L359.183 172.615L359.716 171.769ZM348.625 159.179L347.727 159.618L347.729 159.622L348.625 159.179ZM348.625 121.224L347.728 120.783L347.726 120.787L348.625 121.224ZM359.716 108.588L359.183 107.742L359.18 107.743L359.716 108.588ZM392.852 108.588L392.316 109.432L392.319 109.434L392.852 108.588ZM403.943 121.224L403.044 121.661L403.046 121.665L403.943 121.224ZM403.943 159.179L403.047 158.735L403.045 158.739L403.943 159.179ZM392.852 171.769L392.319 170.924L392.316 170.925L392.852 171.769ZM388.125 162.951L387.503 162.168V162.168L388.125 162.951ZM394.989 153.269L395.926 153.617V153.617L394.989 153.269ZM394.989 127.224L395.927 126.878V126.878L394.989 127.224ZM388.125 117.451L388.752 116.672V116.672L388.125 117.451ZM364.489 117.451L363.862 116.672V116.672L364.489 117.451ZM357.625 127.224L356.687 126.878V126.878L357.625 127.224ZM357.625 153.269L356.688 153.617V153.617L357.625 153.269ZM364.489 162.951L365.111 162.168V162.168L364.489 162.951ZM376.307 176.269V175.269C370.169 175.269 364.828 173.811 360.249 170.924L359.716 171.769L359.183 172.615C364.119 175.728 369.838 177.269 376.307 177.269V176.269ZM359.716 171.769L360.252 170.925C355.691 168.031 352.113 163.978 349.521 158.735L348.625 159.179L347.729 159.622C350.47 165.167 354.287 169.508 359.18 172.614L359.716 171.769ZM348.625 159.179L349.523 158.739C346.966 153.507 345.67 147.36 345.67 140.269H344.67H343.67C343.67 147.604 345.011 154.062 347.727 159.618L348.625 159.179ZM344.67 140.269H345.67C345.67 133.117 346.966 126.924 349.524 121.661L348.625 121.224L347.726 120.787C345.011 126.373 343.67 132.876 343.67 140.269H344.67ZM348.625 121.224L349.522 121.665C352.115 116.392 355.692 112.326 360.252 109.432L359.716 108.588L359.18 107.743C354.285 110.85 350.469 115.207 347.728 120.783L348.625 121.224ZM359.716 108.588L360.249 109.434C364.828 106.546 370.169 105.088 376.307 105.088V104.088V103.088C369.838 103.088 364.119 104.629 359.183 107.742L359.716 108.588ZM376.307 104.088V105.088C382.445 105.088 387.769 106.546 392.316 109.432L392.852 108.588L393.388 107.743C388.481 104.629 382.775 103.088 376.307 103.088V104.088ZM392.852 108.588L392.319 109.434C396.907 112.327 400.483 116.392 403.044 121.661L403.943 121.224L404.843 120.787C402.131 115.208 398.312 110.848 393.386 107.742L392.852 108.588ZM403.943 121.224L403.046 121.665C405.633 126.927 406.943 133.119 406.943 140.269H407.943H408.943C408.943 132.874 407.587 126.369 404.841 120.783L403.943 121.224ZM407.943 140.269H406.943C406.943 147.358 405.633 153.504 403.047 158.735L403.943 159.179L404.84 159.622C407.587 154.065 408.943 147.605 408.943 140.269H407.943ZM403.943 159.179L403.045 158.739C400.484 163.978 396.909 168.029 392.319 170.924L392.852 171.769L393.386 172.615C398.311 169.51 402.129 165.167 404.842 159.618L403.943 159.179ZM392.852 171.769L392.316 170.925C387.769 173.811 382.445 175.269 376.307 175.269V176.269V177.269C382.775 177.269 388.481 175.728 393.388 172.614L392.852 171.769ZM376.307 166.633V167.633C381.271 167.633 385.444 166.357 388.747 163.734L388.125 162.951L387.503 162.168C384.624 164.454 380.919 165.633 376.307 165.633V166.633ZM388.125 162.951L388.747 163.734C391.992 161.157 394.383 157.774 395.926 153.617L394.989 153.269L394.051 152.921C392.624 156.765 390.44 159.836 387.503 162.168L388.125 162.951ZM394.989 153.269L395.926 153.617C397.456 149.496 398.216 145.044 398.216 140.269H397.216H396.216C396.216 144.828 395.491 149.043 394.051 152.921L394.989 153.269ZM397.216 140.269H398.216C398.216 135.495 397.456 131.029 395.927 126.878L394.989 127.224L394.05 127.57C395.491 131.48 396.216 135.711 396.216 140.269H397.216ZM394.989 127.224L395.927 126.878C394.385 122.692 391.995 119.28 388.752 116.672L388.125 117.451L387.498 118.231C390.436 120.593 392.623 123.695 394.05 127.57L394.989 127.224ZM388.125 117.451L388.752 116.672C385.448 114.016 381.274 112.724 376.307 112.724V113.724V114.724C380.916 114.724 384.62 115.917 387.498 118.231L388.125 117.451ZM376.307 113.724V112.724C371.34 112.724 367.165 114.016 363.862 116.672L364.489 117.451L365.115 118.231C367.994 115.917 371.698 114.724 376.307 114.724V113.724ZM364.489 117.451L363.862 116.672C360.618 119.28 358.229 122.692 356.687 126.878L357.625 127.224L358.563 127.57C359.991 123.695 362.177 120.593 365.115 118.231L364.489 117.451ZM357.625 127.224L356.687 126.878C355.158 131.029 354.398 135.495 354.398 140.269H355.398H356.398C356.398 135.711 357.123 131.48 358.563 127.57L357.625 127.224ZM355.398 140.269H354.398C354.398 145.044 355.158 149.496 356.688 153.617L357.625 153.269L358.562 152.921C357.123 149.043 356.398 144.828 356.398 140.269H355.398ZM357.625 153.269L356.688 153.617C358.231 157.774 360.621 161.157 363.867 163.734L364.489 162.951L365.111 162.168C362.174 159.836 359.989 156.765 358.562 152.921L357.625 153.269ZM364.489 162.951L363.867 163.734C367.17 166.357 371.343 167.633 376.307 167.633V166.633V165.633C371.695 165.633 367.989 164.454 365.111 162.168L364.489 162.951ZM435.773 171.633L435.225 172.47V172.47L435.773 171.633ZM424.955 121.497L424.054 121.062L424.053 121.064L424.955 121.497ZM435.955 108.724L436.5 109.562L436.502 109.561L435.955 108.724ZM475.455 114.451L476.247 113.842V113.842L475.455 114.451ZM480.136 125.906V126.906H481.285L481.127 125.768L480.136 125.906ZM469.409 125.906L468.441 126.155L468.634 126.906H469.409V125.906ZM463.955 117.451L463.289 118.198L463.298 118.205L463.955 117.451ZM441.682 116.997L442.249 117.82L442.251 117.819L441.682 116.997ZM434.364 126.133L433.45 125.726L433.449 125.729L434.364 126.133ZM434.318 153.997L433.398 154.387L433.4 154.393L434.318 153.997ZM441.591 163.315L441.013 164.131L441.016 164.133L441.591 163.315ZM460.273 165.179L459.88 164.259V164.259L460.273 165.179ZM466.045 160.997L466.801 161.652V161.652L466.045 160.997ZM469.409 154.451V153.451H468.637L468.442 154.198L469.409 154.451ZM480.136 154.451L481.126 154.597L481.294 153.451H480.136V154.451ZM475.636 165.588L474.827 165.001L474.826 165.002L475.636 165.588ZM466.227 173.406L466.669 174.303L466.672 174.302L466.227 173.406ZM452.682 176.269V175.269C446.299 175.269 440.86 173.765 436.32 170.796L435.773 171.633L435.225 172.47C440.14 175.683 445.974 177.269 452.682 177.269V176.269ZM435.773 171.633L436.32 170.796C431.758 167.813 428.241 163.703 425.769 158.436L424.864 158.86L423.958 159.285C426.578 164.867 430.333 169.271 435.225 172.47L435.773 171.633ZM424.864 158.86L425.769 158.436C423.295 153.164 422.045 147.116 422.045 140.269H421.045H420.045C420.045 147.362 421.341 153.708 423.958 159.285L424.864 158.86ZM421.045 140.269H422.045C422.045 133.302 423.325 127.197 425.856 121.93L424.955 121.497L424.053 121.064C421.372 126.645 420.045 133.055 420.045 140.269H421.045ZM424.955 121.497L425.855 121.932C428.419 116.628 431.968 112.515 436.5 109.562L435.955 108.724L435.409 107.886C430.547 111.054 426.763 115.457 424.054 121.062L424.955 121.497ZM435.955 108.724L436.502 109.561C441.048 106.589 446.368 105.088 452.5 105.088V104.088V103.088C446.026 103.088 440.316 104.678 435.407 107.887L435.955 108.724ZM452.5 104.088V105.088C457.283 105.088 461.562 105.973 465.354 107.723L465.773 106.815L466.192 105.907C462.105 104.021 457.535 103.088 452.5 103.088V104.088ZM465.773 106.815L465.354 107.723C469.154 109.477 472.25 111.923 474.662 115.061L475.455 114.451L476.247 113.842C473.629 110.434 470.27 107.789 466.192 105.907L465.773 106.815ZM475.455 114.451L474.662 115.061C477.064 118.187 478.562 121.84 479.146 126.043L480.136 125.906L481.127 125.768C480.499 121.245 478.875 117.261 476.247 113.842L475.455 114.451ZM480.136 125.906V124.906H469.409V125.906V126.906H480.136V125.906ZM469.409 125.906L470.378 125.657C469.502 122.253 467.56 119.266 464.611 116.697L463.955 117.451L463.298 118.205C465.985 120.546 467.68 123.195 468.441 126.155L469.409 125.906ZM463.955 117.451L464.62 116.705C461.604 114.017 457.587 112.724 452.682 112.724V113.724V114.724C457.231 114.724 460.729 115.916 463.289 118.198L463.955 117.451ZM452.682 113.724V112.724C448.316 112.724 444.447 113.866 441.113 116.175L441.682 116.997L442.251 117.819C445.22 115.763 448.684 114.724 452.682 114.724V113.724ZM441.682 116.997L441.114 116.173C437.822 118.443 435.272 121.642 433.45 125.726L434.364 126.133L435.277 126.541C436.97 122.745 439.299 119.854 442.249 117.82L441.682 116.997ZM434.364 126.133L433.449 125.729C431.654 129.791 430.773 134.526 430.773 139.906H431.773H432.773C432.773 134.741 433.619 130.293 435.278 126.537L434.364 126.133ZM431.773 139.906H430.773C430.773 145.403 431.637 150.238 433.398 154.387L434.318 153.997L435.239 153.606C433.605 149.756 432.773 145.197 432.773 139.906H431.773ZM434.318 153.997L433.4 154.393C435.19 158.538 437.722 161.799 441.013 164.131L441.591 163.315L442.169 162.499C439.217 160.407 436.901 157.456 435.236 153.6L434.318 153.997ZM441.591 163.315L441.016 164.133C444.353 166.476 448.256 167.633 452.682 167.633V166.633V165.633C448.623 165.633 445.132 164.578 442.165 162.496L441.591 163.315ZM452.682 166.633V167.633C455.587 167.633 458.253 167.127 460.665 166.098L460.273 165.179L459.88 164.259C457.747 165.169 455.352 165.633 452.682 165.633V166.633ZM460.273 165.179L460.665 166.098C463.074 165.071 465.123 163.588 466.801 161.652L466.045 160.997L465.29 160.342C463.816 162.042 462.017 163.347 459.88 164.259L460.273 165.179ZM466.045 160.997L466.801 161.652C468.486 159.707 469.675 157.384 470.376 154.705L469.409 154.451L468.442 154.198C467.81 156.609 466.756 158.65 465.29 160.342L466.045 160.997ZM469.409 154.451V155.451H480.136V154.451V153.451H469.409V154.451ZM480.136 154.451L479.147 154.306C478.564 158.271 477.124 161.831 474.827 165.001L475.636 165.588L476.446 166.175C478.937 162.738 480.497 158.874 481.126 154.597L480.136 154.451ZM475.636 165.588L474.826 165.002C472.565 168.133 469.559 170.637 465.783 172.51L466.227 173.406L466.672 174.302C470.714 172.296 473.981 169.588 476.447 166.173L475.636 165.588ZM466.227 173.406L465.786 172.509C462.068 174.338 457.709 175.269 452.682 175.269V176.269V177.269C457.957 177.269 462.629 176.292 466.669 174.303L466.227 173.406ZM545.273 120.633L545.545 121.595L546.554 121.31L546.221 120.315L545.273 120.633ZM535.636 123.36L534.701 123.713L535.025 124.573L535.909 124.323L535.636 123.36ZM532.955 118.679L532.153 119.276L532.159 119.285L532.166 119.294L532.955 118.679ZM528.227 114.86L528.674 113.966V113.966L528.227 114.86ZM509.864 116.315L510.431 117.139L510.432 117.137L509.864 116.315ZM508.545 130.042L507.922 130.824V130.824L508.545 130.042ZM517.636 133.906L517.394 134.876L517.398 134.877L517.636 133.906ZM528 136.451L527.761 137.422L527.764 137.423L528 136.451ZM541.955 143.406L541.241 144.106L541.244 144.109L541.955 143.406ZM543.091 166.088L542.284 165.498L542.28 165.503L543.091 166.088ZM501.591 171.633L502.143 170.799V170.799L501.591 171.633ZM492.727 158.088L492.485 157.118L491.551 157.351L491.748 158.292L492.727 158.088ZM502.909 155.542L503.877 155.292L503.629 154.331L502.667 154.572L502.909 155.542ZM508.409 163.997L507.837 164.817L507.842 164.82L508.409 163.997ZM531 163.633L531.585 164.444L531.587 164.443L531 163.633ZM532.909 149.815L532.208 150.528L532.215 150.535L532.909 149.815ZM525.091 146.088L524.863 147.061L524.864 147.062L525.091 146.088ZM513.455 143.36L513.224 144.333L513.226 144.334L513.455 143.36ZM499.364 136.315L498.629 136.994L498.636 137.001L499.364 136.315ZM498.227 113.815L497.423 113.22L497.42 113.225L498.227 113.815ZM507.364 106.679L506.957 105.765L506.954 105.766L507.364 106.679ZM536.818 108.633L536.208 109.426L536.211 109.428L536.818 108.633ZM545.273 120.633L545 119.671L535.364 122.398L535.636 123.36L535.909 124.323L545.545 121.595L545.273 120.633ZM535.636 123.36L536.572 123.007C535.926 121.297 534.98 119.649 533.743 118.064L532.955 118.679L532.166 119.294C533.293 120.739 534.134 122.212 534.701 123.713L535.636 123.36ZM532.955 118.679L533.756 118.081C532.498 116.392 530.792 115.025 528.674 113.966L528.227 114.86L527.78 115.755C529.663 116.696 531.108 117.875 532.153 119.276L532.955 118.679ZM528.227 114.86L528.674 113.966C526.492 112.875 523.764 112.36 520.545 112.36V113.36V114.36C523.569 114.36 525.963 114.846 527.78 115.755L528.227 114.86ZM520.545 113.36V112.36C516.117 112.36 512.346 113.383 509.295 115.492L509.864 116.315L510.432 117.137C513.078 115.308 516.428 114.36 520.545 114.36V113.36ZM509.864 116.315L509.297 115.491C506.252 117.587 504.636 120.345 504.636 123.724H505.636H506.636C506.636 121.103 507.839 118.922 510.431 117.139L509.864 116.315ZM505.636 123.724H504.636C504.636 126.669 505.725 129.073 507.922 130.824L508.545 130.042L509.169 129.26C507.487 127.92 506.636 126.113 506.636 123.724H505.636ZM508.545 130.042L507.922 130.824C510.026 132.501 513.219 133.832 517.394 134.876L517.636 133.906L517.879 132.936C513.811 131.919 510.943 130.674 509.169 129.26L508.545 130.042ZM517.636 133.906L517.398 134.877L527.761 137.422L528 136.451L528.239 135.48L517.875 132.935L517.636 133.906ZM528 136.451L527.764 137.423C533.905 138.914 538.358 141.167 541.241 144.106L541.955 143.406L542.669 142.706C539.429 139.402 534.58 137.019 528.236 135.48L528 136.451ZM541.955 143.406L541.244 144.109C544.096 146.99 545.545 150.71 545.545 155.36H546.545H547.545C547.545 150.253 545.934 146.004 542.665 142.702L541.955 143.406ZM546.545 155.36H545.545C545.545 159.154 544.458 162.522 542.284 165.498L543.091 166.088L543.898 166.678C546.33 163.35 547.545 159.567 547.545 155.36H546.545ZM543.091 166.088L542.28 165.503C540.125 168.49 537.093 170.871 533.139 172.628L533.545 173.542L533.952 174.456C538.179 172.577 541.511 169.988 543.902 166.673L543.091 166.088ZM533.545 173.542L533.139 172.628C529.2 174.379 524.586 175.269 519.273 175.269V176.269V177.269C524.808 177.269 529.709 176.342 533.952 174.456L533.545 173.542ZM519.273 176.269V175.269C512.295 175.269 506.607 173.756 502.143 170.799L501.591 171.633L501.039 172.467C505.908 175.692 512.008 177.269 519.273 177.269V176.269ZM501.591 171.633L502.143 170.799C497.715 167.867 494.9 163.589 493.706 157.883L492.727 158.088L491.748 158.292C493.04 164.466 496.133 169.218 501.039 172.467L501.591 171.633ZM492.727 158.088L492.97 159.058L503.152 156.512L502.909 155.542L502.667 154.572L492.485 157.118L492.727 158.088ZM502.909 155.542L501.941 155.792C502.959 159.737 504.91 162.778 507.837 164.817L508.409 163.997L508.981 163.176C506.514 161.458 504.799 158.862 503.877 155.292L502.909 155.542ZM508.409 163.997L507.842 164.82C510.783 166.846 514.56 167.815 519.091 167.815V166.815V165.815C514.834 165.815 511.49 164.905 508.976 163.173L508.409 163.997ZM519.091 166.815V167.815C524.223 167.815 528.422 166.727 531.585 164.444L531 163.633L530.415 162.822C527.7 164.782 523.959 165.815 519.091 165.815V166.815ZM531 163.633L531.587 164.443C534.751 162.15 536.455 159.299 536.455 155.906H535.455H534.455C534.455 158.513 533.188 160.813 530.413 162.823L531 163.633ZM535.455 155.906H536.455C536.455 153.219 535.502 150.926 533.603 149.095L532.909 149.815L532.215 150.535C533.71 151.977 534.455 153.744 534.455 155.906H535.455ZM532.909 149.815L533.61 149.101C531.731 147.256 528.926 145.954 525.318 145.114L525.091 146.088L524.864 147.062C528.286 147.858 530.694 149.041 532.208 150.528L532.909 149.815ZM525.091 146.088L525.319 145.114L513.683 142.387L513.455 143.36L513.226 144.334L524.863 147.061L525.091 146.088ZM513.455 143.36L513.685 142.387C507.392 140.896 502.906 138.614 500.091 135.629L499.364 136.315L498.636 137.001C501.822 140.38 506.729 142.794 513.224 144.333L513.455 143.36ZM499.364 136.315L500.098 135.636C497.317 132.628 495.909 128.864 495.909 124.269H494.909H493.909C493.909 129.312 495.471 133.578 498.629 136.994L499.364 136.315ZM494.909 124.269H495.909C495.909 120.531 496.954 117.255 499.035 114.405L498.227 113.815L497.42 113.225C495.076 116.436 493.909 120.129 493.909 124.269H494.909ZM498.227 113.815L499.031 114.41C501.16 111.533 504.062 109.256 507.773 107.591L507.364 106.679L506.954 105.766C502.968 107.555 499.78 110.036 497.423 113.22L498.227 113.815ZM507.364 106.679L507.77 107.592C511.503 105.93 515.755 105.088 520.545 105.088V104.088V103.088C515.518 103.088 510.982 103.973 506.957 105.765L507.364 106.679ZM520.545 104.088V105.088C527.318 105.088 532.501 106.574 536.208 109.426L536.818 108.633L537.428 107.84C533.257 104.632 527.591 103.088 520.545 103.088V104.088ZM536.818 108.633L536.211 109.428C540.014 112.331 542.718 116.161 544.325 120.951L545.273 120.633L546.221 120.315C544.494 115.166 541.562 110.996 537.425 107.838L536.818 108.633Z" fill="white" mask="url(#path-4-outside-1_13_26)"/>
<defs>
<linearGradient id="paint0_linear_13_26" x1="0" y1="0" x2="115.981" y2="181.194" gradientUnits="userSpaceOnUse">
<stop stop-color="#F2F2F2"/>
<stop offset="1" stop-color="#5C5C5C"/>
</linearGradient>
<linearGradient id="paint1_linear_13_26" x1="0" y1="0" x2="115.981" y2="181.194" gradientUnits="userSpaceOnUse">
<stop stop-color="#F2F2F2"/>
<stop offset="1" stop-color="#5C5C5C"/>
</linearGradient>
<linearGradient id="paint2_linear_13_26" x1="0" y1="66.7716" x2="131.733" y2="224.387" gradientUnits="userSpaceOnUse">
<stop stop-color="#F2F2F2"/>
<stop offset="1" stop-color="#5C5C5C"/>
</linearGradient>
</defs>
</svg>
